<svg width="164" height="17" viewBox="0 0 164 17" fill="none" xmlns="http://www.w3.org/2000/svg">
<path d="M6.91929 16.6827H0V0.000595093H5.64763C8.55673 0.000595093 10.4879 1.87179 10.4879 4.44836C10.4879 5.73763 10.0236 6.79961 9.14423 7.58336C11.0261 8.21623 12.1519 9.78177 12.1519 11.8293C12.1519 14.6351 10.0748 16.6827 6.91929 16.6827ZM2.54333 2.35184V6.85055H5.40315C6.99131 6.85055 7.8972 5.96492 7.8972 4.57572C7.8972 3.18653 6.9932 2.35184 5.40315 2.35184H2.54333ZM6.69945 9.15085H2.54333V14.3314H6.69945C8.48471 14.3314 9.53464 13.3459 9.53464 11.7529C9.53464 10.1599 8.48281 9.14889 6.69945 9.14889V9.15085Z" fill="#B59E78"/>
<path d="M22.0898 1.28396C25.9876 1.28396 29.1475 4.44384 29.1475 8.34158C29.1475 12.2393 25.9876 15.3992 22.0898 15.3992C18.1921 15.3992 15.0322 12.2393 15.0322 8.34158C15.0322 4.44385 18.1921 1.28397 22.0898 1.28396Z" stroke="#B59E78" stroke-width="2.46512"/>
<path d="M45.9515 0.269294V16.6832H45.0716L35.2377 5.48018V16.4139H32.6455V2.67029e-05H33.55L43.3593 11.1538V0.269294H45.9515Z" fill="#B59E78"/>
<path d="M66.5143 13.901H59.2498L58.1007 16.5918H55.3359L62.4545 0.177877H63.3343L70.4528 16.5918H67.6634L66.5143 13.901ZM62.8944 4.99624L60.179 11.6748H65.5852L62.8944 4.99624Z" fill="#B59E78"/>
<path d="M73.0342 0.202454H78.9837C82.2675 0.202454 84.5142 2.26545 84.5142 5.22223C84.5142 8.17901 82.2675 10.267 78.9837 10.267H75.6521V16.6024H73.0361V0.202454H73.0342ZM78.934 7.93052C80.7845 7.93052 81.8217 6.86146 81.8217 5.24727C81.8217 3.63308 80.7845 2.53898 78.934 2.53898H75.6501V7.93052H78.934Z" fill="#B59E78"/>
<path d="M87.1387 0.118216H93.0882C96.372 0.118216 98.6187 2.18122 98.6187 5.13799C98.6187 8.09477 96.372 10.1828 93.0882 10.1828H89.7566V16.5182H87.1406V0.118216H87.1387ZM93.0385 7.84628C94.889 7.84628 95.9262 6.77722 95.9262 5.16303C95.9262 3.54885 94.889 2.45474 93.0385 2.45474H89.7546V7.84628H93.0385Z" fill="#B59E78"/>
<path d="M101.57 0.118216H112.103V2.47813H104.142V6.67783H110.137V8.96454H104.142V14.1583H112.394V16.5182H101.57V0.118216Z" fill="#B59E78"/>
<path d="M125.663 16.4807L121.062 10.1453H118.1V16.4807H115.507V0.0807266H121.406C124.661 0.0807266 126.889 2.14373 126.889 5.1005C126.889 7.26174 125.714 8.95298 123.781 9.72155L128.627 16.4807H125.665H125.663ZM118.1 7.80879H121.356C123.144 7.80879 124.219 6.71469 124.219 5.12555C124.219 3.5364 123.142 2.41725 121.356 2.41725H118.1V7.80879Z" fill="#B59E78"/>
<path d="M137.334 15.4407C141.209 15.4407 144.351 12.2994 144.351 8.42455C144.351 4.54966 141.209 1.40843 137.334 1.40843C133.46 1.40843 130.318 4.54966 130.318 8.42455C130.318 12.2994 133.46 15.4407 137.334 15.4407Z" stroke="#B59E78" stroke-width="2.46512"/>
<path d="M155.591 15.4407C159.466 15.4407 162.607 12.2994 162.607 8.42455C162.607 4.54966 159.466 1.40843 155.591 1.40843C151.716 1.40843 148.575 4.54966 148.575 8.42455C148.575 12.2994 151.716 15.4407 155.591 15.4407Z" stroke="#B59E78" stroke-width="2.46512"/>
</svg>
