<svg width="19" height="17" viewBox="0 0 19 17" fill="none" xmlns="http://www.w3.org/2000/svg">
<g clip-path="url(#clip0_74_499)">
<g clip-path="url(#clip1_74_499)">
<g clip-path="url(#clip2_74_499)">
<path d="M16.667 9.63052L12.3812 5.13794C11.8607 4.42998 12.6816 3.59122 13.343 4.13318L18.8109 9.8422C19.063 10.1296 19.063 10.5479 18.8109 10.8353L13.1002 16.8008C12.4733 17.38 11.5959 16.5829 12.087 15.8557L16.667 11.0476L3.27751 11.0484C1.70749 10.9797 0.3803 9.79623 0.0711853 8.19135C-0.0692475 5.68273 0.0483683 3.15056 0.00952527 0.632581C0.134203 -0.210719 1.24137 -0.211002 1.36632 0.632581L1.36496 7.63379C1.36659 8.57611 2.32028 9.63052 3.22454 9.63052H16.667Z" fill="#333533"/>
</g>
</g>
</g>
<defs>
<clipPath id="clip0_74_499">
<rect width="19" height="17" fill="white"/>
</clipPath>
<clipPath id="clip1_74_499">
<rect width="19" height="17" fill="white"/>
</clipPath>
<clipPath id="clip2_74_499">
<rect width="19" height="17" fill="white"/>
</clipPath>
</defs>
</svg>
