<svg width="134" height="20" viewBox="0 0 134 20" fill="none" xmlns="http://www.w3.org/2000/svg">
<g clip-path="url(#clip0_313_255)">
<path d="M13.1576 6.23236H20.7614C21.0443 6.23236 21.1857 6.57381 20.9857 6.77382L8.78496 18.9746C8.58495 19.1746 8.24349 19.0331 8.24349 18.7502V13.1919C8.24349 13.0162 8.10094 12.8747 7.92634 12.8747H0.318145C0.0341498 12.8747 -0.107295 12.5311 0.094927 12.3311L12.4957 0.0916511C12.7001 -0.110571 13.046 0.0419243 13.036 0.329235L12.8405 5.90416C12.8338 6.08318 12.9775 6.23236 13.1576 6.23236Z" fill="#D5FF02"/>
</g>
<path d="M129.458 17.0295C129.008 17.0295 128.553 16.9846 128.092 16.8946C127.631 16.8047 127.198 16.6642 126.793 16.473C126.4 16.2932 126.068 16.0571 125.798 15.7648L126.523 14.0109C126.85 14.3819 127.271 14.663 127.788 14.8541C128.305 15.0452 128.828 15.1408 129.357 15.1408C129.975 15.1408 130.486 15.0115 130.891 14.7529C131.296 14.5056 131.605 14.1177 131.819 13.5893C132.032 13.0609 132.15 12.4032 132.173 11.6163L132.291 10.0142H131.937C131.824 10.7787 131.639 11.4027 131.38 11.8861C131.122 12.3583 130.796 12.7068 130.402 12.9316C130.02 13.1452 129.57 13.2521 129.053 13.2521C128.412 13.2521 127.873 13.089 127.434 12.763C126.996 12.437 126.664 11.9535 126.439 11.3127C126.226 10.6719 126.119 9.87929 126.119 8.93492V5.19116H128.26V8.44587C128.26 9.50267 128.39 10.2728 128.648 10.7562C128.907 11.2284 129.3 11.4645 129.829 11.4645C130.11 11.4645 130.368 11.3914 130.605 11.2453C130.841 11.0879 131.037 10.8686 131.195 10.5876C131.363 10.2953 131.493 9.93551 131.583 9.50829C131.684 9.08108 131.74 8.59203 131.751 8.04114V5.19116H133.893V11.7006C133.893 12.4089 133.831 13.0497 133.707 13.6231C133.595 14.1852 133.421 14.6742 133.185 15.0902C132.949 15.5174 132.651 15.8772 132.291 16.1695C131.942 16.4618 131.532 16.6754 131.06 16.8103C130.588 16.9565 130.054 17.0295 129.458 17.0295Z" fill="black"/>
<path d="M119.594 14.0111V9.59283V5.19138H121.382L121.348 8.22686H121.652C121.753 7.50734 121.91 6.91149 122.124 6.4393C122.337 5.95587 122.635 5.59611 123.018 5.36002C123.4 5.11268 123.872 4.98901 124.434 4.98901C124.547 4.98901 124.665 4.99463 124.788 5.00588C124.923 5.01712 125.069 5.04523 125.227 5.0902L125.142 7.33308C124.963 7.26563 124.777 7.22066 124.586 7.19817C124.406 7.16444 124.237 7.14758 124.08 7.14758C123.642 7.14758 123.259 7.26 122.933 7.48485C122.618 7.70971 122.36 8.03012 122.158 8.44609C121.966 8.85082 121.82 9.33425 121.719 9.89638V14.0111H119.594Z" fill="black"/>
<path d="M112.664 14.2304C111.922 14.2304 111.276 14.0392 110.725 13.657C110.185 13.2747 109.769 12.7407 109.477 12.0549C109.185 11.3579 109.039 10.5372 109.039 9.59282C109.039 8.70466 109.173 7.91768 109.443 7.23189C109.713 6.53485 110.107 5.98959 110.624 5.5961C111.152 5.19137 111.804 4.989 112.58 4.989C113.176 4.989 113.665 5.10705 114.047 5.34314C114.441 5.56799 114.761 5.88841 115.008 6.30438C115.256 6.70911 115.452 7.18692 115.599 7.7378H115.953C115.885 7.38928 115.823 7.04077 115.767 6.69225C115.711 6.34373 115.66 6.01207 115.615 5.69728C115.582 5.37125 115.565 5.07895 115.565 4.82037V2.03784H117.707V9.67714V14.0111H115.902L115.936 11.5153H115.615C115.492 12.0999 115.301 12.5946 115.042 12.9993C114.784 13.404 114.457 13.7132 114.064 13.9268C113.682 14.1292 113.215 14.2304 112.664 14.2304ZM113.339 12.4765C113.71 12.4765 114.036 12.3922 114.317 12.2236C114.598 12.0437 114.828 11.8188 115.008 11.549C115.199 11.2792 115.34 10.9869 115.43 10.6721C115.531 10.3461 115.582 10.0425 115.582 9.76146V9.47477C115.582 9.26116 115.548 9.03069 115.481 8.78336C115.424 8.53602 115.334 8.29431 115.211 8.05821C115.098 7.81088 114.947 7.59165 114.755 7.40053C114.576 7.19816 114.362 7.04077 114.115 6.92834C113.878 6.80467 113.614 6.74284 113.322 6.74284C112.884 6.74284 112.513 6.86651 112.209 7.11384C111.905 7.36118 111.669 7.69845 111.501 8.12567C111.343 8.55289 111.265 9.05318 111.265 9.62655C111.265 10.1999 111.349 10.7002 111.518 11.1274C111.686 11.5546 111.922 11.8863 112.226 12.1224C112.541 12.3585 112.912 12.4765 113.339 12.4765Z" fill="black"/>
<path d="M99.5591 14.0109V8.63137V5.19115H101.33L101.279 7.88936H101.583C101.74 7.22605 101.948 6.68079 102.207 6.25357C102.477 5.82636 102.819 5.50594 103.235 5.29234C103.651 5.07873 104.135 4.97192 104.686 4.97192C105.686 4.97192 106.445 5.32606 106.962 6.03434C107.491 6.74262 107.755 7.83877 107.755 9.32278V14.0109H105.613V9.54201C105.613 8.5864 105.467 7.88936 105.175 7.4509C104.894 7.0012 104.472 6.77635 103.91 6.77635C103.438 6.77635 103.039 6.92812 102.713 7.23167C102.387 7.52398 102.134 7.91747 101.954 8.41214C101.785 8.89557 101.695 9.42959 101.684 10.0142V14.0109H99.5591Z" fill="black"/>
<path d="M92.6732 14.2302C91.6614 14.2302 90.8969 13.8873 90.3797 13.2015C89.8738 12.5044 89.6208 11.4532 89.6208 10.0479V5.19116H91.7626V9.81184C91.7626 10.7 91.8975 11.3633 92.1673 11.8018C92.4371 12.2402 92.8531 12.4595 93.4152 12.4595C93.7412 12.4595 94.0279 12.3808 94.2753 12.2234C94.5226 12.0547 94.7362 11.8243 94.9161 11.5319C95.096 11.2284 95.2365 10.8799 95.3377 10.4864C95.4501 10.0929 95.5176 9.66007 95.54 9.18788V5.19116H97.6649V10.3852V14.0109H95.911L95.9448 11.2284H95.6412C95.4951 11.9367 95.2871 12.51 95.0173 12.9485C94.7587 13.387 94.4383 13.713 94.056 13.9266C93.6738 14.129 93.2128 14.2302 92.6732 14.2302Z" fill="black"/>
<path d="M83.9305 14.2301C83.0648 14.2301 82.3004 14.0559 81.637 13.7074C80.9737 13.3476 80.451 12.8248 80.0687 12.139C79.6977 11.442 79.5122 10.5876 79.5122 9.57574C79.5122 8.54143 79.7033 7.68699 80.0856 7.01244C80.4791 6.32665 81.0075 5.81511 81.6708 5.47784C82.3341 5.14056 83.0817 4.97192 83.9137 4.97192C84.7793 4.97192 85.5438 5.14618 86.2071 5.4947C86.8704 5.84322 87.3932 6.366 87.7755 7.06303C88.1577 7.74883 88.3488 8.60326 88.3488 9.62633C88.3488 10.6606 88.1577 11.5207 87.7755 12.2065C87.3932 12.8923 86.8648 13.4038 86.1903 13.7411C85.527 14.0671 84.7737 14.2301 83.9305 14.2301ZM84.0148 12.6112C84.487 12.6112 84.8861 12.5044 85.2122 12.2908C85.5382 12.066 85.7855 11.7343 85.9542 11.2958C86.1341 10.8574 86.224 10.3346 86.224 9.72751C86.224 9.08669 86.1284 8.54143 85.9373 8.09172C85.7574 7.63078 85.4932 7.27664 85.1447 7.02931C84.8074 6.78197 84.3802 6.6583 83.8631 6.6583C83.4134 6.6583 83.0199 6.77073 82.6826 6.99558C82.3453 7.20919 82.0867 7.5296 81.9069 7.95681C81.7382 8.38403 81.6539 8.91243 81.6539 9.54201C81.6539 10.5314 81.8619 11.2902 82.2779 11.8186C82.7051 12.347 83.2841 12.6112 84.0148 12.6112Z" fill="black"/>
<path d="M70.9917 14.011V2.88086H73.1165V14.011H70.9917ZM71.9529 9.64324V7.87254H78.4118V9.64324H71.9529ZM71.9529 4.71901V2.88086H79.0863V4.71901H71.9529Z" fill="black"/>
<path d="M62.1305 14.2301C61.4223 14.2301 60.7871 14.129 60.2249 13.9266C59.6741 13.7242 59.2075 13.4319 58.8252 13.0497C58.443 12.6562 58.1507 12.184 57.9483 11.6331C57.746 11.0822 57.6448 10.4583 57.6448 9.76124C57.6448 9.0642 57.7403 8.42338 57.9315 7.83877C58.1338 7.25416 58.4205 6.74824 58.7915 6.32103C59.1625 5.89381 59.6122 5.56216 60.1406 5.32606C60.6803 5.08997 61.293 4.97192 61.9788 4.97192C62.6196 4.97192 63.193 5.07873 63.6989 5.29234C64.2048 5.50594 64.632 5.82636 64.9805 6.25357C65.329 6.66955 65.5876 7.19232 65.7563 7.8219C65.9249 8.44024 65.9811 9.15976 65.9249 9.98047L59.0276 10.0311V8.8L64.6938 8.74941L63.9518 9.44083C64.0193 8.8 63.9687 8.27723 63.8001 7.87249C63.6314 7.45652 63.3897 7.15297 63.0749 6.96185C62.7601 6.75948 62.4004 6.6583 61.9956 6.6583C61.5347 6.6583 61.13 6.78197 60.7814 7.02931C60.4329 7.2654 60.1631 7.61392 59.972 8.07486C59.7921 8.52456 59.7022 9.07545 59.7022 9.72751C59.7022 10.7056 59.9158 11.4364 60.343 11.9198C60.7814 12.4032 61.3773 12.6449 62.1305 12.6449C62.4678 12.6449 62.7489 12.6056 62.9737 12.5269C63.2098 12.437 63.4066 12.3245 63.564 12.1896C63.7214 12.0435 63.845 11.8805 63.935 11.7006C64.0362 11.5207 64.1148 11.3296 64.1711 11.1272L66.0261 11.5488C65.9361 11.9648 65.79 12.3358 65.5876 12.6618C65.3853 12.9878 65.1211 13.2689 64.795 13.505C64.4802 13.7411 64.1036 13.921 63.6651 14.0446C63.2267 14.1683 62.7152 14.2301 62.1305 14.2301Z" fill="black"/>
<path d="M48.0508 16.8103V9.66006V5.19115H49.8383L49.8215 7.58581L50.1082 7.60267C50.2206 7.04055 50.4005 6.56274 50.6478 6.16925C50.9064 5.77576 51.2324 5.47784 51.6259 5.27547C52.0194 5.07311 52.486 4.97192 53.0256 4.97192C53.8126 4.97192 54.4815 5.16867 55.0324 5.56216C55.5833 5.9444 55.9992 6.48966 56.2803 7.19794C56.5726 7.89498 56.7188 8.71006 56.7188 9.64319C56.7188 10.5201 56.5839 11.3071 56.314 12.0041C56.0555 12.6899 55.6564 13.2352 55.1167 13.6399C54.5883 14.0334 53.9306 14.2301 53.1436 14.2301C52.5703 14.2301 52.0868 14.1177 51.6934 13.8929C51.2999 13.668 50.9795 13.3588 50.7321 12.9654C50.4848 12.5719 50.2824 12.1165 50.125 11.5994H49.8215C49.8889 11.9029 49.9451 12.2177 49.9901 12.5438C50.0463 12.8586 50.0913 13.1733 50.125 13.4881C50.1588 13.7917 50.1756 14.084 50.1756 14.3651V16.8103H48.0508ZM52.4522 12.4932C52.8907 12.4932 53.2617 12.3751 53.5652 12.139C53.8688 11.8917 54.0993 11.5544 54.2567 11.1272C54.4141 10.6887 54.4927 10.1885 54.4927 9.62633C54.4927 9.04172 54.4084 8.5358 54.2398 8.10859C54.0824 7.68137 53.8463 7.34972 53.5315 7.11362C53.2167 6.87753 52.8457 6.75949 52.4185 6.75949C52.0475 6.75949 51.7215 6.8438 51.4404 7.01244C51.1593 7.18108 50.9232 7.40593 50.7321 7.68699C50.541 7.95681 50.4005 8.24912 50.3105 8.56391C50.2206 8.8787 50.1756 9.18787 50.1756 9.49142V9.7781C50.1756 10.003 50.2037 10.239 50.2599 10.4864C50.3274 10.7225 50.423 10.9642 50.5466 11.2115C50.6703 11.4476 50.8221 11.6668 51.0019 11.8692C51.1818 12.0603 51.3954 12.2121 51.6428 12.3245C51.8901 12.437 52.1599 12.4932 52.4522 12.4932Z" fill="black"/>
<path d="M41.7661 17.0295C41.3164 17.0295 40.8611 16.9846 40.4002 16.8946C39.9392 16.8047 39.5064 16.6642 39.1017 16.473C38.7082 16.2932 38.3765 16.0571 38.1067 15.7648L38.8318 14.0109C39.1579 14.3819 39.5795 14.663 40.0966 14.8541C40.6138 15.0452 41.1365 15.1408 41.6649 15.1408C42.2833 15.1408 42.7948 15.0115 43.1996 14.7529C43.6043 14.5056 43.9135 14.1177 44.1271 13.5893C44.3407 13.0609 44.4587 12.4032 44.4812 11.6163L44.5992 10.0142H44.2451C44.1327 10.7787 43.9472 11.4027 43.6886 11.8861C43.43 12.3583 43.104 12.7068 42.7105 12.9316C42.3283 13.1452 41.8786 13.2521 41.3614 13.2521C40.7206 13.2521 40.1809 13.089 39.7425 12.763C39.304 12.437 38.9724 11.9535 38.7475 11.3127C38.5339 10.6719 38.4271 9.87929 38.4271 8.93492V5.19116H40.5688V8.44587C40.5688 9.50267 40.6981 10.2728 40.9567 10.7562C41.2152 11.2284 41.6087 11.4645 42.1371 11.4645C42.4182 11.4645 42.6768 11.3914 42.9129 11.2453C43.149 11.0879 43.3457 10.8686 43.5031 10.5876C43.6717 10.2953 43.801 9.93551 43.891 9.50829C43.9922 9.08108 44.0484 8.59203 44.0596 8.04114V5.19116H46.2013V11.7006C46.2013 12.4089 46.1395 13.0497 46.0158 13.6231C45.9034 14.1852 45.7291 14.6742 45.493 15.0902C45.2569 15.5174 44.959 15.8772 44.5992 16.1695C44.2507 16.4618 43.8404 16.6754 43.3682 16.8103C42.896 16.9565 42.362 17.0295 41.7661 17.0295Z" fill="black"/>
<path d="M34.3987 14.011V2.88086H36.5236V14.011H34.3987ZM27.0798 14.011V2.88086H29.2047V14.011H27.0798ZM28.2772 9.23851V7.48467H35.2419V9.23851H28.2772Z" fill="black"/>
<defs>
<clipPath id="clip0_313_255">
<rect width="21.0797" height="19.0675" fill="white"/>
</clipPath>
</defs>
</svg>
