<svg width="381" height="295" viewBox="0 0 381 295" fill="none" xmlns="http://www.w3.org/2000/svg">
<rect x="4.64634" y="4.64634" width="371.707" height="284.976" rx="57.3049" stroke="#E2E1DE" stroke-width="9.29268"/>
<path d="M58.8545 245.693V246.385H114.883V245.693C103.47 228.054 101.049 218.37 101.049 194.506V104.537C101.049 80.6726 103.47 70.9887 114.883 53.3501V52.6584H58.8545V53.3501C69.9218 70.9887 72.6887 81.0184 72.6887 104.537V194.506C72.6887 218.025 69.9218 228.054 58.8545 245.693Z" fill="#E2E1DE"/>
<path d="M192.924 215.853L185.517 173.711C183.983 164.98 177.638 158.481 168.86 156.937L127.273 149.611L169.317 142.086C177.627 140.598 183.993 134.242 185.466 125.886L192.991 83.1903L200.486 125.829C201.948 134.155 208.263 140.619 216.593 142.096L259.068 149.647L216.701 157.106C207.97 158.645 201.573 165.401 200.275 174.132L192.919 215.853H192.924Z" fill="#E2E1DE"/>
<path d="M271.459 245.693V246.385H327.487V245.693C316.074 228.054 313.653 218.37 313.653 194.506V104.537C313.653 80.6726 316.074 70.9887 327.487 53.3501V52.6584H271.459V53.3501C282.526 70.9887 285.293 81.0184 285.293 104.537V194.506C285.293 218.025 282.526 228.054 271.459 245.693Z" fill="#E2E1DE"/>
</svg>
