<svg width="1093" height="946" viewBox="0 0 1093 946" fill="none" xmlns="http://www.w3.org/2000/svg">
<rect x="140.828" y="55.2559" width="825.086" height="825.086" rx="412.543" fill="white" fill-opacity="0.1"/>
<g filter="url(#filter0_d_735_2753)">
<rect x="410.473" y="324.899" width="285.798" height="285.798" rx="142.899" fill="white" shape-rendering="crispEdges"/>
<rect x="407.366" y="321.793" width="292.011" height="292.011" rx="146.005" stroke="#EDF7F7" stroke-opacity="0.1" stroke-width="6.21299" shape-rendering="crispEdges"/>
<path d="M525.086 438.156L538.058 425.184C539.119 424.124 540.558 423.528 542.058 423.528C543.558 423.528 544.997 424.124 546.057 425.184L555.03 434.157C556.091 435.217 557.53 435.813 559.03 435.813C560.53 435.813 561.968 435.217 563.029 434.157L581.659 415.527M567.516 415.527H581.659V429.671" stroke="#8ACACA" stroke-width="6.21299" stroke-linecap="round" stroke-linejoin="round"/>
<path d="M490.074 490.479V493.712H475.141V469.663H478.875V490.479H490.074ZM500.507 494.045C495.49 494.045 492.191 490.595 492.191 484.946C492.191 479.313 495.507 475.863 500.507 475.863C505.507 475.863 508.823 479.313 508.823 484.946C508.823 490.595 505.523 494.045 500.507 494.045ZM500.507 491.079C503.34 491.079 505.157 488.845 505.157 484.946C505.157 481.063 503.323 478.829 500.507 478.829C497.69 478.829 495.857 481.063 495.857 484.946C495.857 488.845 497.69 491.079 500.507 491.079ZM512.14 493.712V476.179H515.573V479.113H515.656C516.606 477.113 518.473 475.879 521.173 475.879C525.039 475.879 527.256 478.346 527.256 482.362V493.712H523.639V483.062C523.639 480.429 522.406 478.979 519.906 478.979C517.373 478.979 515.74 480.779 515.74 483.496V493.712H512.14ZM538.738 490.795C541.555 490.795 543.405 488.512 543.405 484.896C543.405 481.296 541.555 478.929 538.738 478.929C535.972 478.929 534.172 481.246 534.172 484.896C534.172 488.562 535.972 490.795 538.738 490.795ZM538.772 500.312C534.639 500.312 531.572 498.112 531.122 495.079H534.739C535.255 496.545 536.855 497.512 538.905 497.512C541.722 497.512 543.388 495.912 543.388 493.512V490.629H543.322C542.338 492.529 540.272 493.779 537.772 493.779C533.372 493.779 530.489 490.345 530.489 484.879C530.489 479.363 533.355 475.896 537.855 475.896C540.338 475.896 542.372 477.146 543.438 479.179H543.505V476.179H547.005V493.395C547.005 497.578 543.772 500.312 538.772 500.312ZM559.621 472.03H563.237V476.179H566.57V479.029H563.237V488.695C563.237 490.212 563.904 490.895 565.371 490.895C565.737 490.895 566.32 490.862 566.554 490.812V493.662C566.154 493.762 565.354 493.829 564.554 493.829C561.004 493.829 559.621 492.479 559.621 489.095V479.029H557.071V476.179H559.621V472.03ZM577.003 478.763C574.487 478.763 572.72 480.679 572.537 483.329H581.303C581.22 480.646 579.52 478.763 577.003 478.763ZM581.286 488.562H584.703C584.203 491.762 581.17 494.045 577.153 494.045C572.004 494.045 568.887 490.562 568.887 485.029C568.887 479.529 572.054 475.863 577.003 475.863C581.87 475.863 584.903 479.296 584.903 484.612V485.846H572.52V486.062C572.52 489.112 574.353 491.129 577.237 491.129C579.287 491.129 580.803 490.095 581.286 488.562ZM588.236 493.712V476.179H591.669V479.163H591.753C592.336 477.113 593.903 475.896 595.969 475.896C596.486 475.896 596.936 475.979 597.202 476.029V479.379C596.919 479.263 596.286 479.179 595.586 479.179C593.269 479.179 591.836 480.729 591.836 483.212V493.712H588.236ZM599.969 493.712V476.179H603.402V479.129H603.485C604.269 477.179 606.102 475.879 608.469 475.879C610.902 475.879 612.668 477.129 613.368 479.313H613.452C614.352 477.179 616.418 475.879 618.918 475.879C622.385 475.879 624.651 478.179 624.651 481.662V493.712H621.035V482.529C621.035 480.263 619.818 478.963 617.685 478.963C615.552 478.963 614.068 480.546 614.068 482.762V493.712H610.535V482.262C610.535 480.246 609.252 478.963 607.219 478.963C605.085 478.963 603.569 480.629 603.569 482.879V493.712H599.969ZM520.639 526.712C520.639 533.229 516.789 537.112 510.273 537.112C503.39 537.112 499.057 532.295 499.057 524.579C499.057 516.996 503.373 512.263 510.223 512.263C515.573 512.263 519.623 515.43 520.456 520.229H516.623C515.723 517.246 513.373 515.53 510.24 515.53C505.64 515.53 502.873 518.896 502.873 524.546C502.873 530.296 505.723 533.845 510.306 533.845C514.206 533.845 516.906 531.345 516.956 527.696V527.279H510.74V524.262H520.639V526.712ZM524.389 536.712V519.179H527.822V522.163H527.906C528.489 520.113 530.056 518.896 532.122 518.896C532.639 518.896 533.089 518.979 533.355 519.029V522.379C533.072 522.263 532.439 522.179 531.739 522.179C529.422 522.179 527.989 523.729 527.989 526.212V536.712H524.389ZM542.922 537.045C537.905 537.045 534.605 533.595 534.605 527.946C534.605 522.313 537.922 518.863 542.922 518.863C547.921 518.863 551.238 522.313 551.238 527.946C551.238 533.595 547.938 537.045 542.922 537.045ZM542.922 534.079C545.755 534.079 547.571 531.845 547.571 527.946C547.571 524.063 545.738 521.829 542.922 521.829C540.105 521.829 538.272 524.063 538.272 527.946C538.272 531.845 540.105 534.079 542.922 534.079ZM577.62 519.179L572.82 536.712H569.07L565.387 523.579H565.304L561.654 536.712H557.938L553.121 519.179H556.721L559.921 532.979H559.987L563.637 519.179H567.104L570.77 532.979H570.854L574.053 519.179H577.62ZM581.403 515.03H585.02V519.179H588.353V522.029H585.02V531.695C585.02 533.212 585.686 533.895 587.153 533.895C587.52 533.895 588.103 533.862 588.336 533.812V536.662C587.936 536.762 587.136 536.829 586.336 536.829C582.786 536.829 581.403 535.479 581.403 532.095V522.029H578.853V519.179H581.403V515.03ZM591.986 536.712V512.663H595.552V522.113H595.636C596.602 520.063 598.519 518.879 601.186 518.879C605.035 518.879 607.335 521.446 607.335 525.412V536.712H603.719V526.112C603.719 523.529 602.419 521.979 599.886 521.979C597.219 521.979 595.586 523.813 595.586 526.579V536.712H591.986Z" fill="#1E1E1F"/>
</g>
<g clip-path="url(#clip0_735_2753)">
<path d="M206.062 245.283C252.472 173.11 320.775 116.39 401.61 84.4856C406.953 82.3886 412.345 80.3914 417.787 78.4941" stroke="#EDF7F7" stroke-width="2.49646" stroke-miterlimit="10"/>
<path d="M166.096 610.163C149.744 565.801 140.832 517.844 140.832 467.79C140.832 417.736 149.37 371.851 165.073 328.263" stroke="#EDF7F7" stroke-width="2.49646" stroke-miterlimit="10"/>
<path d="M422.615 858.737C332.617 828.805 256.425 768.64 206.047 690.326" stroke="#EDF7F7" stroke-width="2.49646" stroke-miterlimit="10"/>
<path d="M907.328 677.593C860.119 757.23 786.823 819.591 699.223 852.919" stroke="#EDF7F7" stroke-width="2.49646" stroke-miterlimit="10"/>
<path d="M934.789 313.509C954.062 361.166 964.672 413.242 964.672 467.815C964.672 514.723 956.833 559.81 942.378 601.8" stroke="#EDF7F7" stroke-width="2.49646" stroke-miterlimit="10"/>
<path d="M668.363 72.3271C675.229 74.3243 682.044 76.5212 688.759 78.8679C770.668 107.502 840.769 161.276 889.799 230.952" stroke="#EDF7F7" stroke-width="2.49646" stroke-miterlimit="10"/>
<path d="M881.491 230.272L890.262 231.546L891.481 223.146" stroke="#EDF7F7" stroke-width="2.49646" stroke-linecap="round" stroke-linejoin="round"/>
<path d="M938.137 593.86L942.256 601.699L949.77 597.73" stroke="#EDF7F7" stroke-width="2.49646" stroke-linecap="round" stroke-linejoin="round"/>
<path d="M701.04 845.855L697.77 854.094L705.658 857.214" stroke="#EDF7F7" stroke-width="2.49646" stroke-linecap="round" stroke-linejoin="round"/>
<path d="M213.616 690.125L204.829 688.977L203.73 697.39" stroke="#EDF7F7" stroke-width="2.49646" stroke-linecap="round" stroke-linejoin="round"/>
<path d="M169.539 335.901L165.02 328.287L157.73 332.606" stroke="#EDF7F7" stroke-width="2.49646" stroke-linecap="round" stroke-linejoin="round"/>
<path d="M414.569 86.0068L418.614 78.1429L411.074 74.2734" stroke="#EDF7F7" stroke-width="2.49646" stroke-linecap="round" stroke-linejoin="round"/>
<rect x="898.812" y="672.828" width="12.7994" height="12.7994" rx="6.3997" fill="white" fill-opacity="0.2"/>
<rect x="900.945" y="674.961" width="8.53294" height="8.53294" rx="4.26647" fill="#EDF7F7"/>
</g>
<g filter="url(#filter1_d_735_2753)">
<rect x="434.078" y="34.1318" width="238.809" height="79.6905" rx="17.0659" fill="white" shape-rendering="crispEdges"/>
<rect x="435.145" y="35.1985" width="236.676" height="77.5572" rx="15.9993" stroke="#EDF7F7" stroke-width="2.13323" shape-rendering="crispEdges"/>
<path d="M497.292 64.4625L481.175 55.4884C480.262 54.9805 479.235 54.7139 478.19 54.7139C477.145 54.7139 476.118 54.9805 475.205 55.4884L459.087 64.4614C457.612 65.2829 457.612 67.4044 459.087 68.2259L475.204 77.2011C476.117 77.709 477.144 77.9756 478.189 77.9756C479.234 77.9756 480.261 77.709 481.174 77.2011L497.292 68.2259C498.767 67.4044 498.767 65.2829 497.292 64.4614" stroke="#8ACACA" stroke-width="2.4852" stroke-linecap="round" stroke-linejoin="round"/>
<path d="M493.82 70.1611L497.292 72.0936C498.767 72.9162 498.767 75.0376 497.292 75.8602L493.818 77.7916L481.176 84.8354C480.262 85.343 479.235 85.6093 478.189 85.6093C477.144 85.6093 476.116 85.343 475.203 84.8354L462.559 77.7916L459.087 75.8602C457.612 75.0376 457.612 72.9162 459.087 72.0936L462.559 70.1611" stroke="#8ACACA" stroke-width="2.4852" stroke-linecap="round" stroke-linejoin="round"/>
<path d="M493.82 77.792L497.292 79.7256C498.767 80.547 498.767 82.6685 497.292 83.4911L481.176 92.4663C480.262 92.9738 479.235 93.2401 478.189 93.2401C477.144 93.2401 476.116 92.9738 475.203 92.4663L459.087 83.4911C457.612 82.6685 457.612 80.547 459.087 79.7245L462.559 77.792" stroke="#8ACACA" stroke-width="2.4852" stroke-linecap="round" stroke-linejoin="round"/>
<path d="M519.185 79.2778H522.868C523.135 81.6611 525.451 83.2277 528.618 83.2277C531.651 83.2277 533.834 81.6611 533.834 79.5112C533.834 77.6446 532.518 76.528 529.401 75.7613L526.285 75.0114C521.868 73.9448 519.818 71.8782 519.818 68.5283C519.818 64.3785 523.435 61.5287 528.568 61.5287C533.651 61.5287 537.134 64.3785 537.251 68.5283H533.618C533.401 66.1285 531.418 64.6785 528.518 64.6785C525.618 64.6785 523.635 66.1451 523.635 68.2784C523.635 69.9783 524.902 70.9782 528.001 71.7449L530.651 72.3948C535.584 73.5614 537.634 75.5447 537.634 79.0612C537.634 83.561 534.051 86.3775 528.351 86.3775C523.018 86.3775 519.418 83.6276 519.185 79.2778ZM542.134 64.2952H545.751V68.445H549.084V71.2949H545.751V80.9611C545.751 82.4777 546.417 83.161 547.884 83.161C548.25 83.161 548.834 83.1277 549.067 83.0777V85.9275C548.667 86.0275 547.867 86.0942 547.067 86.0942C543.517 86.0942 542.134 84.7443 542.134 81.3611V71.2949H539.584V68.445H542.134V64.2952ZM552.584 85.9775V68.445H556.017V71.4282H556.1C556.683 69.3783 558.25 68.1617 560.317 68.1617C560.833 68.1617 561.283 68.245 561.55 68.295V71.6449C561.266 71.5282 560.633 71.4449 559.933 71.4449C557.617 71.4449 556.183 72.9948 556.183 75.478V85.9775H552.584ZM570.083 83.4277C572.599 83.4277 574.566 81.6944 574.566 79.4112V78.0279L570.249 78.2946C568.1 78.4446 566.883 79.3945 566.883 80.8944C566.883 82.4277 568.149 83.4277 570.083 83.4277ZM569.083 86.2775C565.65 86.2775 563.25 84.1443 563.25 80.9944C563.25 77.9279 565.6 76.0447 569.766 75.8113L574.566 75.528V74.1781C574.566 72.2282 573.249 71.0616 571.049 71.0616C568.966 71.0616 567.666 72.0615 567.35 73.6281H563.95C564.15 70.4616 566.85 68.1284 571.183 68.1284C575.432 68.1284 578.149 70.3783 578.149 73.8948V85.9775H574.699V83.0943H574.616C573.599 85.0442 571.383 86.2775 569.083 86.2775ZM583.232 64.2952H586.849V68.445H590.182V71.2949H586.849V80.9611C586.849 82.4777 587.515 83.161 588.982 83.161C589.349 83.161 589.932 83.1277 590.165 83.0777V85.9275C589.765 86.0275 588.965 86.0942 588.165 86.0942C584.615 86.0942 583.232 84.7443 583.232 81.3611V71.2949H580.682V68.445H583.232V64.2952ZM600.615 71.0282C598.098 71.0282 596.332 72.9448 596.148 75.5947H604.914C604.831 72.9115 603.131 71.0282 600.615 71.0282ZM604.898 80.8278H608.314C607.814 84.0276 604.781 86.3109 600.765 86.3109C595.615 86.3109 592.498 82.8277 592.498 77.2946C592.498 71.7949 595.665 68.1284 600.615 68.1284C605.481 68.1284 608.514 71.5615 608.514 76.878V78.1112H596.132V78.3279C596.132 81.3778 597.965 83.3943 600.848 83.3943C602.898 83.3943 604.414 82.361 604.898 80.8278ZM619.314 83.061C622.13 83.061 623.98 80.7778 623.98 77.1613C623.98 73.5614 622.13 71.1949 619.314 71.1949C616.547 71.1949 614.747 73.5114 614.747 77.1613C614.747 80.8278 616.547 83.061 619.314 83.061ZM619.347 92.5772C615.214 92.5772 612.147 90.3773 611.697 87.3441H615.314C615.831 88.8107 617.431 89.7774 619.48 89.7774C622.297 89.7774 623.964 88.1774 623.964 85.7775V82.8943H623.897C622.914 84.7943 620.847 86.0442 618.347 86.0442C613.947 86.0442 611.064 82.611 611.064 77.1446C611.064 71.6282 613.931 68.1617 618.431 68.1617C620.914 68.1617 622.947 69.4116 624.014 71.4449H624.08V68.445H627.58V85.6609C627.58 89.844 624.347 92.5772 619.347 92.5772ZM633.413 92.5106C633.13 92.5106 632.213 92.4772 631.947 92.4272V89.5107C632.213 89.5774 632.813 89.5774 633.113 89.5774C634.796 89.5774 635.68 88.8774 636.23 87.0775C636.23 87.0442 636.546 86.0109 636.546 85.9942L630.213 68.445H634.113L638.563 82.711H638.613L643.063 68.445H646.863L640.279 86.8942C638.78 91.144 637.063 92.5106 633.413 92.5106Z" fill="#1E1E1F"/>
</g>
<g filter="url(#filter2_d_735_2753)">
<rect x="417.926" y="822.104" width="269.981" height="72.53" rx="17.0659" fill="#DCEFEF" shape-rendering="crispEdges"/>
<rect x="418.992" y="823.17" width="267.848" height="70.3967" rx="15.9993" stroke="#EDF7F7" stroke-width="2.13323" shape-rendering="crispEdges"/>
<path fill-rule="evenodd" clip-rule="evenodd" d="M458.485 872.767C460.376 872.767 462.249 872.395 463.996 871.671C465.743 870.948 467.33 869.887 468.667 868.55C470.004 867.213 471.065 865.625 471.789 863.878C472.512 862.131 472.885 860.259 472.885 858.368C472.885 856.477 472.512 854.605 471.789 852.858C471.065 851.111 470.004 849.523 468.667 848.186C467.33 846.849 465.743 845.788 463.996 845.065C462.249 844.341 460.376 843.969 458.485 843.969C454.666 843.969 451.004 845.486 448.303 848.186C445.603 850.887 444.086 854.549 444.086 858.368C444.086 862.187 445.603 865.85 448.303 868.55C451.004 871.25 454.666 872.767 458.485 872.767ZM458.114 864.192L466.114 854.592L463.656 852.544L456.777 860.798L453.217 857.237L450.954 859.499L455.754 864.299L456.993 865.537L458.114 864.192Z" fill="#8ACACA"/>
<path d="M496.967 846.319H505.983C510.649 846.319 513.899 849.536 513.899 854.219C513.899 858.919 510.583 862.152 505.866 862.152H500.7V870.368H496.967V846.319ZM500.7 849.469V859.019H504.983C508.233 859.019 510.083 857.269 510.083 854.236C510.083 851.202 508.233 849.469 505 849.469H500.7ZM517.266 870.368V852.836H520.699V855.819H520.782C521.365 853.769 522.932 852.552 524.999 852.552C525.515 852.552 525.965 852.636 526.232 852.686V856.035C525.949 855.919 525.315 855.836 524.615 855.836C522.299 855.836 520.865 857.385 520.865 859.869V870.368H517.266ZM535.798 870.701C530.782 870.701 527.482 867.252 527.482 861.602C527.482 855.969 530.798 852.519 535.798 852.519C540.798 852.519 544.114 855.969 544.114 861.602C544.114 867.252 540.815 870.701 535.798 870.701ZM535.798 867.735C538.631 867.735 540.448 865.502 540.448 861.602C540.448 857.719 538.615 855.486 535.798 855.486C532.982 855.486 531.148 857.719 531.148 861.602C531.148 865.502 532.982 867.735 535.798 867.735ZM556.564 852.552C561.014 852.552 563.947 856.052 563.947 861.602C563.947 867.152 561.03 870.668 556.63 870.668C554.114 870.668 552.114 869.435 551.114 867.485H551.031V876.168H547.431V852.836H550.914V855.852H550.981C552.014 853.836 554.031 852.552 556.564 852.552ZM555.614 867.618C558.464 867.618 560.247 865.285 560.247 861.602C560.247 857.935 558.464 855.586 555.614 855.586C552.864 855.586 551.014 857.985 551.014 861.602C551.014 865.252 552.847 867.618 555.614 867.618ZM574.596 855.419C572.08 855.419 570.313 857.335 570.13 859.985H578.896C578.813 857.302 577.113 855.419 574.596 855.419ZM578.879 865.218H582.296C581.796 868.418 578.763 870.701 574.746 870.701C569.597 870.701 566.48 867.218 566.48 861.685C566.48 856.185 569.647 852.519 574.596 852.519C579.463 852.519 582.496 855.952 582.496 861.269V862.502H570.113V862.719C570.113 865.768 571.946 867.785 574.83 867.785C576.88 867.785 578.396 866.752 578.879 865.218ZM585.829 870.368V852.836H589.262V855.819H589.346C589.929 853.769 591.496 852.552 593.562 852.552C594.079 852.552 594.529 852.636 594.795 852.686V856.035C594.512 855.919 593.879 855.836 593.179 855.836C590.862 855.836 589.429 857.385 589.429 859.869V870.368H585.829ZM598.612 848.686H602.228V852.836H605.562V855.686H602.228V865.352C602.228 866.868 602.895 867.552 604.362 867.552C604.728 867.552 605.312 867.518 605.545 867.468V870.318C605.145 870.418 604.345 870.485 603.545 870.485C599.995 870.485 598.612 869.135 598.612 865.752V855.686H596.062V852.836H598.612V848.686ZM610.795 876.901C610.511 876.901 609.595 876.868 609.328 876.818V873.901C609.595 873.968 610.195 873.968 610.495 873.968C612.178 873.968 613.061 873.268 613.611 871.468C613.611 871.435 613.928 870.401 613.928 870.385L607.595 852.836H611.495L615.944 867.102H615.994L620.444 852.836H624.244L617.661 871.285C616.161 875.535 614.444 876.901 610.795 876.901ZM639.677 859.485V856.552H642.576C645.176 856.552 646.96 854.919 646.96 852.652C646.96 850.419 645.426 848.936 642.576 848.936C639.977 848.936 638.243 850.436 638.027 852.802H634.51C634.794 848.586 637.977 845.869 642.743 845.869C647.293 845.869 650.609 848.453 650.609 852.152C650.609 855.152 648.643 857.302 645.66 857.835V857.902C649.276 858.152 651.609 860.369 651.609 863.735C651.609 867.935 647.793 870.818 642.776 870.818C637.593 870.818 634.26 867.968 634.027 863.818H637.61C637.843 866.118 639.743 867.702 642.776 867.702C645.71 867.702 647.81 866.035 647.81 863.685C647.81 861.085 645.843 859.485 642.676 859.485H639.677Z" fill="#233333"/>
</g>
<g filter="url(#filter3_d_735_2753)">
<rect x="42.6641" y="608.212" width="270.928" height="72.53" rx="17.0659" fill="#DCEFEF" shape-rendering="crispEdges"/>
<rect x="43.7307" y="609.279" width="268.795" height="70.3967" rx="15.9993" stroke="#EDF7F7" stroke-width="2.13323" shape-rendering="crispEdges"/>
<path fill-rule="evenodd" clip-rule="evenodd" d="M83.1962 658.876C85.0872 658.876 86.9596 658.503 88.7066 657.78C90.4536 657.056 92.041 655.995 93.3781 654.658C94.7152 653.321 95.7758 651.734 96.4995 649.987C97.2231 648.24 97.5955 646.367 97.5955 644.476C97.5955 642.586 97.2231 640.713 96.4995 638.966C95.7758 637.219 94.7152 635.632 93.3781 634.295C92.041 632.958 90.4536 631.897 88.7066 631.173C86.9596 630.45 85.0872 630.077 83.1962 630.077C79.3773 630.077 75.7147 631.594 73.0143 634.295C70.3139 636.995 68.7969 640.658 68.7969 644.476C68.7969 648.295 70.3139 651.958 73.0143 654.658C75.7147 657.359 79.3773 658.876 83.1962 658.876ZM82.825 650.3L90.8247 640.701L88.3672 638.653L81.4875 646.907L77.9277 643.345L75.6654 645.608L80.4651 650.407L81.7035 651.646L82.825 650.3Z" fill="#8ACACA"/>
<path d="M121.678 632.428H130.694C135.36 632.428 138.61 635.644 138.61 640.327C138.61 645.027 135.294 648.26 130.577 648.26H125.411V656.477H121.678V632.428ZM125.411 635.578V645.127H129.694C132.944 645.127 134.794 643.377 134.794 640.344C134.794 637.311 132.944 635.578 129.71 635.578H125.411ZM141.977 656.477V638.944H145.41V641.927H145.493C146.076 639.877 147.643 638.661 149.71 638.661C150.226 638.661 150.676 638.744 150.943 638.794V642.144C150.659 642.027 150.026 641.944 149.326 641.944C147.01 641.944 145.576 643.494 145.576 645.977V656.477H141.977ZM160.509 656.81C155.493 656.81 152.193 653.36 152.193 647.71C152.193 642.077 155.509 638.627 160.509 638.627C165.509 638.627 168.825 642.077 168.825 647.71C168.825 653.36 165.525 656.81 160.509 656.81ZM160.509 653.843C163.342 653.843 165.159 651.61 165.159 647.71C165.159 643.827 163.326 641.594 160.509 641.594C157.692 641.594 155.859 643.827 155.859 647.71C155.859 651.61 157.692 653.843 160.509 653.843ZM181.275 638.661C185.725 638.661 188.658 642.161 188.658 647.71C188.658 653.26 185.741 656.777 181.341 656.777C178.825 656.777 176.825 655.543 175.825 653.593H175.742V662.276H172.142V638.944H175.625V641.961H175.692C176.725 639.944 178.742 638.661 181.275 638.661ZM180.325 653.727C183.175 653.727 184.958 651.393 184.958 647.71C184.958 644.044 183.175 641.694 180.325 641.694C177.575 641.694 175.725 644.094 175.725 647.71C175.725 651.36 177.558 653.727 180.325 653.727ZM199.307 641.527C196.791 641.527 195.024 643.444 194.841 646.094H203.607C203.524 643.411 201.824 641.527 199.307 641.527ZM203.59 651.327H207.007C206.507 654.527 203.474 656.81 199.457 656.81C194.307 656.81 191.191 653.327 191.191 647.794C191.191 642.294 194.357 638.627 199.307 638.627C204.174 638.627 207.207 642.061 207.207 647.377V648.61H194.824V648.827C194.824 651.877 196.657 653.893 199.541 653.893C201.59 653.893 203.107 652.86 203.59 651.327ZM210.54 656.477V638.944H213.973V641.927H214.057C214.64 639.877 216.206 638.661 218.273 638.661C218.79 638.661 219.24 638.744 219.506 638.794V642.144C219.223 642.027 218.59 641.944 217.89 641.944C215.573 641.944 214.14 643.494 214.14 645.977V656.477H210.54ZM223.323 634.794H226.939V638.944H230.272V641.794H226.939V651.46C226.939 652.977 227.606 653.66 229.073 653.66C229.439 653.66 230.022 653.627 230.256 653.577V656.427C229.856 656.527 229.056 656.593 228.256 656.593C224.706 656.593 223.323 655.243 223.323 651.86V641.794H220.773V638.944H223.323V634.794ZM235.506 663.01C235.222 663.01 234.306 662.976 234.039 662.926V660.01C234.306 660.076 234.906 660.076 235.206 660.076C236.889 660.076 237.772 659.376 238.322 657.577C238.322 657.543 238.639 656.51 238.639 656.493L232.306 638.944H236.206L240.655 653.21H240.705L245.155 638.944H248.955L242.372 657.393C240.872 661.643 239.155 663.01 235.506 663.01ZM270.587 656.477V651.727H258.554V648.46C260.621 644.577 263.354 640.261 268.771 632.428H274.17V648.594H277.47V651.727H274.17V656.477H270.587ZM262.038 648.56V648.644H270.621V635.311H270.554C266.387 641.327 263.954 645.077 262.038 648.56Z" fill="#233333"/>
</g>
<g filter="url(#filter4_d_735_2753)">
<rect x="67.5156" y="239.161" width="269.928" height="72.53" rx="17.0659" fill="#DCEFEF" shape-rendering="crispEdges"/>
<rect x="68.5822" y="240.228" width="267.795" height="70.3967" rx="15.9993" stroke="#EDF7F7" stroke-width="2.13323" shape-rendering="crispEdges"/>
<path fill-rule="evenodd" clip-rule="evenodd" d="M108.048 289.825C109.939 289.825 111.811 289.453 113.558 288.729C115.305 288.005 116.893 286.945 118.23 285.608C119.567 284.27 120.627 282.683 121.351 280.936C122.075 279.189 122.447 277.317 122.447 275.426C122.447 273.535 122.075 271.662 121.351 269.915C120.627 268.168 119.567 266.581 118.23 265.244C116.893 263.907 115.305 262.846 113.558 262.122C111.811 261.399 109.939 261.026 108.048 261.026C104.229 261.026 100.566 262.543 97.8659 265.244C95.1655 267.944 93.6484 271.607 93.6484 275.426C93.6484 279.245 95.1655 282.907 97.8659 285.608C100.566 288.308 104.229 289.825 108.048 289.825ZM107.677 281.249L115.676 271.65L113.219 269.602L106.339 277.856L102.779 274.295L100.517 276.557L105.317 281.357L106.555 282.595L107.677 281.249Z" fill="#8ACACA"/>
<path d="M146.529 263.377H155.545C160.212 263.377 163.462 266.593 163.462 271.277C163.462 275.976 160.145 279.209 155.429 279.209H150.262V287.426H146.529V263.377ZM150.262 266.527V276.076H154.545C157.795 276.076 159.645 274.326 159.645 271.293C159.645 268.26 157.795 266.527 154.562 266.527H150.262ZM166.828 287.426V269.893H170.261V272.876H170.345C170.928 270.827 172.495 269.61 174.561 269.61C175.078 269.61 175.528 269.693 175.794 269.743V273.093C175.511 272.976 174.878 272.893 174.178 272.893C171.861 272.893 170.428 274.443 170.428 276.926V287.426H166.828ZM185.361 287.759C180.344 287.759 177.044 284.309 177.044 278.66C177.044 273.026 180.361 269.577 185.361 269.577C190.36 269.577 193.677 273.026 193.677 278.66C193.677 284.309 190.377 287.759 185.361 287.759ZM185.361 284.793C188.194 284.793 190.01 282.559 190.01 278.66C190.01 274.776 188.177 272.543 185.361 272.543C182.544 272.543 180.711 274.776 180.711 278.66C180.711 282.559 182.544 284.793 185.361 284.793ZM206.126 269.61C210.576 269.61 213.509 273.11 213.509 278.66C213.509 284.209 210.593 287.726 206.193 287.726C203.676 287.726 201.677 286.492 200.677 284.543H200.593V293.226H196.993V269.893H200.477V272.91H200.543C201.577 270.893 203.593 269.61 206.126 269.61ZM205.176 284.676C208.026 284.676 209.809 282.343 209.809 278.66C209.809 274.993 208.026 272.643 205.176 272.643C202.426 272.643 200.577 275.043 200.577 278.66C200.577 282.309 202.41 284.676 205.176 284.676ZM224.159 272.476C221.642 272.476 219.876 274.393 219.692 277.043H228.459C228.375 274.36 226.675 272.476 224.159 272.476ZM228.442 282.276H231.858C231.358 285.476 228.325 287.759 224.309 287.759C219.159 287.759 216.043 284.276 216.043 278.743C216.043 273.243 219.209 269.577 224.159 269.577C229.025 269.577 232.058 273.01 232.058 278.326V279.559H219.676V279.776C219.676 282.826 221.509 284.843 224.392 284.843C226.442 284.843 227.959 283.809 228.442 282.276ZM235.392 287.426V269.893H238.825V272.876H238.908C239.491 270.827 241.058 269.61 243.125 269.61C243.641 269.61 244.091 269.693 244.358 269.743V273.093C244.075 272.976 243.441 272.893 242.741 272.893C240.425 272.893 238.991 274.443 238.991 276.926V287.426H235.392ZM248.174 265.743H251.791V269.893H255.124V272.743H251.791V282.409C251.791 283.926 252.457 284.609 253.924 284.609C254.291 284.609 254.874 284.576 255.107 284.526V287.376C254.707 287.476 253.907 287.542 253.107 287.542C249.558 287.542 248.174 286.193 248.174 282.809V272.743H245.624V269.893H248.174V265.743ZM260.357 293.959C260.074 293.959 259.157 293.925 258.891 293.875V290.959C259.157 291.026 259.757 291.026 260.057 291.026C261.74 291.026 262.624 290.326 263.174 288.526C263.174 288.492 263.49 287.459 263.49 287.442L257.157 269.893H261.057L265.507 284.159H265.557L270.007 269.893H273.807L267.223 288.342C265.724 292.592 264.007 293.959 260.357 293.959ZM292.622 287.876C287.823 287.876 284.306 284.943 284.089 280.743H287.656C287.923 283.126 289.972 284.759 292.656 284.759C295.689 284.759 297.789 282.643 297.789 279.626C297.789 276.61 295.689 274.443 292.689 274.443C290.606 274.443 288.806 275.393 287.873 276.976H284.456L285.723 263.377H300.039V266.527H288.722L288.056 273.91H288.139C289.189 272.393 291.156 271.477 293.506 271.477C298.122 271.477 301.439 274.86 301.439 279.526C301.439 284.459 297.805 287.876 292.622 287.876Z" fill="#233333"/>
</g>
<g filter="url(#filter5_d_735_2753)">
<rect x="773.309" y="608.212" width="268.928" height="72.53" rx="17.0659" fill="#DCEFEF" shape-rendering="crispEdges"/>
<rect x="774.375" y="609.279" width="266.795" height="70.3967" rx="15.9993" stroke="#EDF7F7" stroke-width="2.13323" shape-rendering="crispEdges"/>
<path fill-rule="evenodd" clip-rule="evenodd" d="M813.841 658.876C815.732 658.876 817.604 658.503 819.351 657.78C821.098 657.056 822.686 655.995 824.023 654.658C825.36 653.321 826.42 651.734 827.144 649.987C827.868 648.24 828.24 646.367 828.24 644.476C828.24 642.586 827.868 640.713 827.144 638.966C826.42 637.219 825.36 635.632 824.023 634.295C822.686 632.958 821.098 631.897 819.351 631.173C817.604 630.45 815.732 630.077 813.841 630.077C810.022 630.077 806.359 631.594 803.659 634.295C800.958 636.995 799.441 640.658 799.441 644.476C799.441 648.295 800.958 651.958 803.659 654.658C806.359 657.359 810.022 658.876 813.841 658.876ZM813.47 650.3L821.469 640.701L819.012 638.653L812.132 646.907L808.572 643.345L806.31 645.608L811.11 650.407L812.348 651.646L813.47 650.3Z" fill="#8ACACA"/>
<path d="M852.322 632.428H861.338C866.005 632.428 869.255 635.644 869.255 640.327C869.255 645.027 865.938 648.26 861.222 648.26H856.055V656.477H852.322V632.428ZM856.055 635.578V645.127H860.338C863.588 645.127 865.438 643.377 865.438 640.344C865.438 637.311 863.588 635.578 860.355 635.578H856.055ZM872.621 656.477V638.944H876.054V641.927H876.138C876.721 639.877 878.287 638.661 880.354 638.661C880.871 638.661 881.321 638.744 881.587 638.794V642.144C881.304 642.027 880.671 641.944 879.971 641.944C877.654 641.944 876.221 643.494 876.221 645.977V656.477H872.621ZM891.154 656.81C886.137 656.81 882.837 653.36 882.837 647.71C882.837 642.077 886.154 638.627 891.154 638.627C896.153 638.627 899.47 642.077 899.47 647.71C899.47 653.36 896.17 656.81 891.154 656.81ZM891.154 653.843C893.987 653.843 895.803 651.61 895.803 647.71C895.803 643.827 893.97 641.594 891.154 641.594C888.337 641.594 886.504 643.827 886.504 647.71C886.504 651.61 888.337 653.843 891.154 653.843ZM911.919 638.661C916.369 638.661 919.302 642.161 919.302 647.71C919.302 653.26 916.386 656.777 911.986 656.777C909.469 656.777 907.469 655.543 906.47 653.593H906.386V662.276H902.786V638.944H906.27V641.961H906.336C907.369 639.944 909.386 638.661 911.919 638.661ZM910.969 653.727C913.819 653.727 915.602 651.393 915.602 647.71C915.602 644.044 913.819 641.694 910.969 641.694C908.219 641.694 906.37 644.094 906.37 647.71C906.37 651.36 908.203 653.727 910.969 653.727ZM929.952 641.527C927.435 641.527 925.669 643.444 925.485 646.094H934.252C934.168 643.411 932.468 641.527 929.952 641.527ZM934.235 651.327H937.651C937.151 654.527 934.118 656.81 930.102 656.81C924.952 656.81 921.835 653.327 921.835 647.794C921.835 642.294 925.002 638.627 929.952 638.627C934.818 638.627 937.851 642.061 937.851 647.377V648.61H925.469V648.827C925.469 651.877 927.302 653.893 930.185 653.893C932.235 653.893 933.752 652.86 934.235 651.327ZM941.185 656.477V638.944H944.618V641.927H944.701C945.284 639.877 946.851 638.661 948.918 638.661C949.434 638.661 949.884 638.744 950.151 638.794V642.144C949.868 642.027 949.234 641.944 948.534 641.944C946.218 641.944 944.784 643.494 944.784 645.977V656.477H941.185ZM953.967 634.794H957.584V638.944H960.917V641.794H957.584V651.46C957.584 652.977 958.25 653.66 959.717 653.66C960.084 653.66 960.667 653.627 960.9 653.577V656.427C960.5 656.527 959.7 656.593 958.9 656.593C955.351 656.593 953.967 655.243 953.967 651.86V641.794H951.417V638.944H953.967V634.794ZM966.15 663.01C965.867 663.01 964.95 662.976 964.683 662.926V660.01C964.95 660.076 965.55 660.076 965.85 660.076C967.533 660.076 968.417 659.376 968.967 657.577C968.967 657.543 969.283 656.51 969.283 656.493L962.95 638.944H966.85L971.3 653.21H971.35L975.8 638.944H979.599L973.016 657.393C971.517 661.643 969.8 663.01 966.15 663.01ZM989.599 639.477C989.599 635.144 993.082 631.978 997.865 631.978C1002.45 631.978 1005.86 634.894 1005.86 638.711C1005.86 641.511 1004.36 643.594 1000.85 647.194L994.832 653.243V653.327H1006.25V656.477H989.799V653.943L998.482 645.094C1001.42 642.044 1002.18 640.777 1002.18 638.894C1002.18 636.761 1000.25 635.061 997.749 635.061C995.115 635.061 993.132 636.961 993.132 639.461V639.511H989.599V639.477Z" fill="#233333"/>
</g>
<g filter="url(#filter6_d_735_2753)">
<rect x="784.492" y="239.161" width="264.928" height="72.53" rx="17.0659" fill="#DCEFEF" shape-rendering="crispEdges"/>
<rect x="785.559" y="240.228" width="262.795" height="70.3967" rx="15.9993" stroke="#EDF7F7" stroke-width="2.13323" shape-rendering="crispEdges"/>
<path fill-rule="evenodd" clip-rule="evenodd" d="M825.024 289.825C826.915 289.825 828.788 289.453 830.535 288.729C832.282 288.005 833.869 286.945 835.206 285.608C836.543 284.27 837.604 282.683 838.328 280.936C839.051 279.189 839.424 277.317 839.424 275.426C839.424 273.535 839.051 271.662 838.328 269.915C837.604 268.168 836.543 266.581 835.206 265.244C833.869 263.907 832.282 262.846 830.535 262.122C828.788 261.399 826.915 261.026 825.024 261.026C821.205 261.026 817.543 262.543 814.842 265.244C812.142 267.944 810.625 271.607 810.625 275.426C810.625 279.245 812.142 282.907 814.842 285.608C817.543 288.308 821.205 289.825 825.024 289.825ZM824.653 281.249L832.653 271.65L830.195 269.602L823.316 277.856L819.756 274.295L817.493 276.557L822.293 281.357L823.532 282.595L824.653 281.249Z" fill="#8ACACA"/>
<path d="M863.506 263.377H872.522C877.188 263.377 880.438 266.593 880.438 271.277C880.438 275.976 877.122 279.209 872.405 279.209H867.239V287.426H863.506V263.377ZM867.239 266.527V276.076H871.522C874.772 276.076 876.622 274.326 876.622 271.293C876.622 268.26 874.772 266.527 871.539 266.527H867.239ZM883.805 287.426V269.893H887.238V272.876H887.321C887.904 270.827 889.471 269.61 891.538 269.61C892.054 269.61 892.504 269.693 892.771 269.743V273.093C892.488 272.976 891.854 272.893 891.154 272.893C888.838 272.893 887.405 274.443 887.405 276.926V287.426H883.805ZM902.337 287.759C897.321 287.759 894.021 284.309 894.021 278.66C894.021 273.026 897.337 269.577 902.337 269.577C907.337 269.577 910.653 273.026 910.653 278.66C910.653 284.309 907.354 287.759 902.337 287.759ZM902.337 284.793C905.17 284.793 906.987 282.559 906.987 278.66C906.987 274.776 905.154 272.543 902.337 272.543C899.521 272.543 897.687 274.776 897.687 278.66C897.687 282.559 899.521 284.793 902.337 284.793ZM923.103 269.61C927.553 269.61 930.486 273.11 930.486 278.66C930.486 284.209 927.569 287.726 923.17 287.726C920.653 287.726 918.653 286.492 917.653 284.543H917.57V293.226H913.97V269.893H917.453V272.91H917.52C918.553 270.893 920.57 269.61 923.103 269.61ZM922.153 284.676C925.003 284.676 926.786 282.343 926.786 278.66C926.786 274.993 925.003 272.643 922.153 272.643C919.403 272.643 917.553 275.043 917.553 278.66C917.553 282.309 919.386 284.676 922.153 284.676ZM941.135 272.476C938.619 272.476 936.852 274.393 936.669 277.043H945.435C945.352 274.36 943.652 272.476 941.135 272.476ZM945.418 282.276H948.835C948.335 285.476 945.302 287.759 941.285 287.759C936.136 287.759 933.019 284.276 933.019 278.743C933.019 273.243 936.186 269.577 941.135 269.577C946.002 269.577 949.035 273.01 949.035 278.326V279.559H936.652V279.776C936.652 282.826 938.485 284.843 941.369 284.843C943.419 284.843 944.935 283.809 945.418 282.276ZM952.368 287.426V269.893H955.801V272.876H955.885C956.468 270.827 958.035 269.61 960.101 269.61C960.618 269.61 961.068 269.693 961.334 269.743V273.093C961.051 272.976 960.418 272.893 959.718 272.893C957.401 272.893 955.968 274.443 955.968 276.926V287.426H952.368ZM965.151 265.743H968.767V269.893H972.101V272.743H968.767V282.409C968.767 283.926 969.434 284.609 970.901 284.609C971.267 284.609 971.851 284.576 972.084 284.526V287.376C971.684 287.476 970.884 287.542 970.084 287.542C966.534 287.542 965.151 286.193 965.151 282.809V272.743H962.601V269.893H965.151V265.743ZM977.334 293.959C977.05 293.959 976.134 293.925 975.867 293.875V290.959C976.134 291.026 976.734 291.026 977.034 291.026C978.717 291.026 979.6 290.326 980.15 288.526C980.15 288.492 980.467 287.459 980.467 287.442L974.134 269.893H978.034L982.483 284.159H982.533L986.983 269.893H990.783L984.2 288.342C982.7 292.592 980.984 293.959 977.334 293.959ZM1007.07 287.426V267.077H1006.98L1000.7 271.543V267.877L1007.03 263.377H1010.72V287.426H1007.07Z" fill="#233333"/>
</g>
<rect x="665.203" y="66.4404" width="12.7994" height="12.7994" rx="6.3997" fill="white" fill-opacity="0.2"/>
<rect x="667.336" y="68.5732" width="8.53294" height="8.53294" rx="4.26647" fill="#EDF7F7"/>
<rect x="928.633" y="306.261" width="12.7994" height="12.7994" rx="6.3997" fill="white" fill-opacity="0.2"/>
<rect x="930.766" y="308.395" width="8.53294" height="8.53294" rx="4.26647" fill="#EDF7F7"/>
<rect x="202.957" y="234.19" width="12.7994" height="12.7994" rx="6.3997" fill="white" fill-opacity="0.2"/>
<rect x="205.086" y="236.324" width="8.53294" height="8.53294" rx="4.26647" fill="#EDF7F7"/>
<rect x="159.465" y="601.999" width="12.7994" height="12.7994" rx="6.3997" fill="white" fill-opacity="0.2"/>
<rect x="161.594" y="604.132" width="8.53294" height="8.53294" rx="4.26647" fill="#EDF7F7"/>
<rect x="412.957" y="850.52" width="12.7994" height="12.7994" rx="6.3997" fill="white" fill-opacity="0.2"/>
<rect x="415.09" y="852.652" width="8.53294" height="8.53294" rx="4.26647" fill="#EDF7F7"/>
<defs>
<filter id="filter0_d_735_2753" x="361.593" y="284.555" width="383.556" height="383.553" filterUnits="userSpaceOnUse" color-interpolation-filters="sRGB">
<feFlood flood-opacity="0" result="BackgroundImageFix"/>
<feColorMatrix in="SourceAlpha" type="matrix" values="0 0 0 0 0 0 0 0 0 0 0 0 0 0 0 0 0 0 127 0" result="hardAlpha"/>
<feOffset dy="8.53294"/>
<feGaussianBlur stdDeviation="21.3323"/>
<feComposite in2="hardAlpha" operator="out"/>
<feColorMatrix type="matrix" values="0 0 0 0 0 0 0 0 0 0 0 0 0 0 0 0 0 0 0.05 0"/>
<feBlend mode="normal" in2="BackgroundImageFix" result="effect1_dropShadow_735_2753"/>
<feBlend mode="normal" in="SourceGraphic" in2="effect1_dropShadow_735_2753" result="shape"/>
</filter>
<filter id="filter1_d_735_2753" x="391.413" y="8.58307e-05" width="324.138" height="165.02" filterUnits="userSpaceOnUse" color-interpolation-filters="sRGB">
<feFlood flood-opacity="0" result="BackgroundImageFix"/>
<feColorMatrix in="SourceAlpha" type="matrix" values="0 0 0 0 0 0 0 0 0 0 0 0 0 0 0 0 0 0 127 0" result="hardAlpha"/>
<feOffset dy="8.53294"/>
<feGaussianBlur stdDeviation="21.3323"/>
<feComposite in2="hardAlpha" operator="out"/>
<feColorMatrix type="matrix" values="0 0 0 0 0 0 0 0 0 0 0 0 0 0 0 0 0 0 0.05 0"/>
<feBlend mode="normal" in2="BackgroundImageFix" result="effect1_dropShadow_735_2753"/>
<feBlend mode="normal" in="SourceGraphic" in2="effect1_dropShadow_735_2753" result="shape"/>
</filter>
<filter id="filter2_d_735_2753" x="375.261" y="787.972" width="355.31" height="157.86" filterUnits="userSpaceOnUse" color-interpolation-filters="sRGB">
<feFlood flood-opacity="0" result="BackgroundImageFix"/>
<feColorMatrix in="SourceAlpha" type="matrix" values="0 0 0 0 0 0 0 0 0 0 0 0 0 0 0 0 0 0 127 0" result="hardAlpha"/>
<feOffset dy="8.53294"/>
<feGaussianBlur stdDeviation="21.3323"/>
<feComposite in2="hardAlpha" operator="out"/>
<feColorMatrix type="matrix" values="0 0 0 0 0 0 0 0 0 0 0 0 0 0 0 0 0 0 0.05 0"/>
<feBlend mode="normal" in2="BackgroundImageFix" result="effect1_dropShadow_735_2753"/>
<feBlend mode="normal" in="SourceGraphic" in2="effect1_dropShadow_735_2753" result="shape"/>
</filter>
<filter id="filter3_d_735_2753" x="-0.00062561" y="574.08" width="356.259" height="157.86" filterUnits="userSpaceOnUse" color-interpolation-filters="sRGB">
<feFlood flood-opacity="0" result="BackgroundImageFix"/>
<feColorMatrix in="SourceAlpha" type="matrix" values="0 0 0 0 0 0 0 0 0 0 0 0 0 0 0 0 0 0 127 0" result="hardAlpha"/>
<feOffset dy="8.53294"/>
<feGaussianBlur stdDeviation="21.3323"/>
<feComposite in2="hardAlpha" operator="out"/>
<feColorMatrix type="matrix" values="0 0 0 0 0 0 0 0 0 0 0 0 0 0 0 0 0 0 0.05 0"/>
<feBlend mode="normal" in2="BackgroundImageFix" result="effect1_dropShadow_735_2753"/>
<feBlend mode="normal" in="SourceGraphic" in2="effect1_dropShadow_735_2753" result="shape"/>
</filter>
<filter id="filter4_d_735_2753" x="24.8509" y="205.029" width="355.259" height="157.86" filterUnits="userSpaceOnUse" color-interpolation-filters="sRGB">
<feFlood flood-opacity="0" result="BackgroundImageFix"/>
<feColorMatrix in="SourceAlpha" type="matrix" values="0 0 0 0 0 0 0 0 0 0 0 0 0 0 0 0 0 0 127 0" result="hardAlpha"/>
<feOffset dy="8.53294"/>
<feGaussianBlur stdDeviation="21.3323"/>
<feComposite in2="hardAlpha" operator="out"/>
<feColorMatrix type="matrix" values="0 0 0 0 0 0 0 0 0 0 0 0 0 0 0 0 0 0 0.05 0"/>
<feBlend mode="normal" in2="BackgroundImageFix" result="effect1_dropShadow_735_2753"/>
<feBlend mode="normal" in="SourceGraphic" in2="effect1_dropShadow_735_2753" result="shape"/>
</filter>
<filter id="filter5_d_735_2753" x="730.644" y="574.08" width="354.259" height="157.86" filterUnits="userSpaceOnUse" color-interpolation-filters="sRGB">
<feFlood flood-opacity="0" result="BackgroundImageFix"/>
<feColorMatrix in="SourceAlpha" type="matrix" values="0 0 0 0 0 0 0 0 0 0 0 0 0 0 0 0 0 0 127 0" result="hardAlpha"/>
<feOffset dy="8.53294"/>
<feGaussianBlur stdDeviation="21.3323"/>
<feComposite in2="hardAlpha" operator="out"/>
<feColorMatrix type="matrix" values="0 0 0 0 0 0 0 0 0 0 0 0 0 0 0 0 0 0 0.05 0"/>
<feBlend mode="normal" in2="BackgroundImageFix" result="effect1_dropShadow_735_2753"/>
<feBlend mode="normal" in="SourceGraphic" in2="effect1_dropShadow_735_2753" result="shape"/>
</filter>
<filter id="filter6_d_735_2753" x="741.827" y="205.029" width="350.259" height="157.86" filterUnits="userSpaceOnUse" color-interpolation-filters="sRGB">
<feFlood flood-opacity="0" result="BackgroundImageFix"/>
<feColorMatrix in="SourceAlpha" type="matrix" values="0 0 0 0 0 0 0 0 0 0 0 0 0 0 0 0 0 0 127 0" result="hardAlpha"/>
<feOffset dy="8.53294"/>
<feGaussianBlur stdDeviation="21.3323"/>
<feComposite in2="hardAlpha" operator="out"/>
<feColorMatrix type="matrix" values="0 0 0 0 0 0 0 0 0 0 0 0 0 0 0 0 0 0 0.05 0"/>
<feBlend mode="normal" in2="BackgroundImageFix" result="effect1_dropShadow_735_2753"/>
<feBlend mode="normal" in="SourceGraphic" in2="effect1_dropShadow_735_2753" result="shape"/>
</filter>
<clipPath id="clip0_735_2753">
<rect width="826.328" height="788.781" fill="white" transform="translate(139.586 71.1289)"/>
</clipPath>
</defs>
</svg>
